<svg xmlns="http://www.w3.org/2000/svg" class="graphdiagram" viewBox="-1323.8014449902041 -568.7950526057261 3170.091492902964 1952.5788224710889"><g class="layer relationships"><g class="related-pair"><g class="relationship" transform="translate(0,0) rotate(4.3852246550439915)"><path class="relationship" d="M 143.3179199593767 4 L 588.8578329544904 4 L 588.8578329544904 16 L 620.8578329544904 0 L 588.8578329544904 -16 L 588.8578329544904 -4 L 143.3179199593767 -4 Z" fill="rgb(0, 0, 0)" stroke="rgb(51, 51, 51)" stroke-width="0px"/><text class="type" text-anchor="middle" baseline-shift="30%" alignment-baseline="alphabetic" x="366.08787645693354" y="0" font-size="50px" font-family="&quot;Gill Sans&quot;, &quot;Gill Sans MT&quot;, Calibri, sans-serif">WORKS_WITH</text></g></g><g class="related-pair"><g class="relationship" transform="translate(0,0) rotate(37.37514401598422)"><path class="relationship" d="M 143.3179199593767 4 L 839.2606862469024 4 L 839.2606862469024 16 L 871.2606862469024 0 L 839.2606862469024 -16 L 839.2606862469024 -4 L 143.3179199593767 -4 Z" fill="rgb(0, 0, 0)" stroke="rgb(51, 51, 51)" stroke-width="0px"/><text class="type" text-anchor="middle" baseline-shift="30%" alignment-baseline="alphabetic" x="491.28930310313956" y="0" font-size="50px" font-family="&quot;Gill Sans&quot;, &quot;Gill Sans MT&quot;, Calibri, sans-serif">WORKS_ON</text></g></g><g class="related-pair"><g class="relationship" transform="translate(0,0) rotate(96.83413380031351)"><path class="relationship" d="M 143.3179199593767 4 L 672.7591555729705 4 L 672.7591555729705 16 L 704.7591555729705 0 L 672.7591555729705 -16 L 672.7591555729705 -4 L 143.3179199593767 -4 Z" fill="rgb(0, 0, 0)" stroke="rgb(51, 51, 51)" stroke-width="0px"/><text class="type" text-anchor="middle" baseline-shift="30%" alignment-baseline="alphabetic" x="-408.0385377661736" y="0" font-size="50px" font-family="&quot;Gill Sans&quot;, &quot;Gill Sans MT&quot;, Calibri, sans-serif" transform="rotate(180)">USES</text></g></g><g class="related-pair"><g class="relationship" transform="translate(0,0) rotate(144.72561343765543)"><path class="relationship" d="M 143.3179199593767 4 L 462.97704889875075 4 L 462.97704889875075 16 L 494.97704889875075 0 L 462.97704889875075 -16 L 462.97704889875075 -4 L 143.3179199593767 -4 Z" fill="rgb(0, 0, 0)" stroke="rgb(51, 51, 51)" stroke-width="0px"/><text class="type" text-anchor="middle" baseline-shift="30%" alignment-baseline="alphabetic" x="-303.14748442906375" y="0" font-size="50px" font-family="&quot;Gill Sans&quot;, &quot;Gill Sans MT&quot;, Calibri, sans-serif" transform="rotate(180)">WORKS_IN</text></g></g></g><g class="layer nodes"><circle class="node node-id-0" r="128.3179199593767" fill="rgb(255, 255, 255)" stroke="rgb(0, 0, 0)" stroke-width="8px" cx="0" cy="0"/><g class="caption"><text class="caption node" text-anchor="middle" alignment-baseline="central" x="0" y="0" fill="rgb(51, 51, 51)" font-size="50px" font-family="&quot;Gill Sans&quot;, &quot;Gill Sans MT&quot;, Calibri, sans-serif">Developer</text></g><circle class="node node-id-1" r="234.27491912857997" fill="rgb(255, 255, 255)" stroke="rgb(0, 0, 0)" stroke-width="8px" cx="867.5854412841801" cy="66.53200973510735"/><g class="caption"><text class="caption node" text-anchor="middle" alignment-baseline="central" x="867.5854412841801" y="66.53200973510735" fill="rgb(51, 51, 51)" font-size="50px" font-family="&quot;Gill Sans&quot;, &quot;Gill Sans MT&quot;, Calibri, sans-serif">SoftwareApplications</text></g><circle class="node node-id-2" r="108.7461942022548" fill="rgb(255, 255, 255)" stroke="rgb(0, 0, 0)" stroke-width="8px" cx="790.7101143646241" cy="604.0001715087891"/><g class="caption"><text class="caption node" text-anchor="middle" alignment-baseline="central" x="790.7101143646241" y="604.0001715087891" fill="rgb(51, 51, 51)" font-size="50px" font-family="&quot;Gill Sans&quot;, &quot;Gill Sans MT&quot;, Calibri, sans-serif">Platform</text></g><circle class="node node-id-3" r="139.82751139503873" fill="rgb(255, 255, 255)" stroke="rgb(0, 0, 0)" stroke-width="8px" cx="-102.28694839477542" cy="853.4791258239746"/><g class="caption"><text class="caption node" text-anchor="middle" alignment-baseline="central" x="-102.28694839477542" y="853.4791258239746" fill="rgb(51, 51, 51)" font-size="50px" font-family="&quot;Gill Sans&quot;, &quot;Gill Sans MT&quot;, Calibri, sans-serif">SocialMedia</text></g><circle class="node node-id-4" r="285.49504521373075" fill="rgb(255, 255, 255)" stroke="rgb(0, 0, 0)" stroke-width="8px" cx="-649.4201031494151" cy="459.37934448242174"/><g class="caption"><text class="caption node" text-anchor="middle" alignment-baseline="central" x="-649.4201031494151" y="459.37934448242174" fill="rgb(51, 51, 51)" font-size="50px" font-family="&quot;Gill Sans&quot;, &quot;Gill Sans MT&quot;, Calibri, sans-serif">DevelopmentEnvironment</text></g></g><g class="layer properties"><g class="speech-bubble node-speech-bubble" transform="translate(0,-128.3179199593767) "><path class="speech-bubble-outline" transform="scale(1,-1) " d="M 0 0 L -10 20 L -249.69482421875 20 A 10 10 0 0 0 -259.69482421875 30 L -259.69482421875 180 A 10 10 0 0 0 -249.69482421875 190 L 249.69482421875 190 A 10 10 0 0 0 259.69482421875 180 L 259.69482421875 30 A 10 10 0 0 0 249.69482421875 20 L 10 20 Z" fill="rgb(255, 255, 255)" stroke="rgb(0, 0, 0)" stroke-width="3px"/><text class="speech-bubble-content property-key" x="-35.36376953125" y="-155" alignment-baseline="central" text-anchor="end" font-size="50px" font-family="&quot;Gill Sans&quot;, &quot;Gill Sans MT&quot;, Calibri, sans-serif" xml:space="preserve">{ Age: </text><text class="speech-bubble-content property-key" x="-35.36376953125" y="-105" alignment-baseline="central" text-anchor="end" font-size="50px" font-family="&quot;Gill Sans&quot;, &quot;Gill Sans MT&quot;, Calibri, sans-serif" xml:space="preserve">{Gender: </text><text class="speech-bubble-content property-value" x="-35.36376953125" y="-155" alignment-baseline="central" font-size="50px" font-family="&quot;Gill Sans&quot;, &quot;Gill Sans MT&quot;, Calibri, sans-serif">22}</text><text class="speech-bubble-content property-value" x="-35.36376953125" y="-105" alignment-baseline="central" font-size="50px" font-family="&quot;Gill Sans&quot;, &quot;Gill Sans MT&quot;, Calibri, sans-serif">Male}</text><text class="speech-bubble-content property-key" x="-35.36376953125" y="-55" alignment-baseline="central" text-anchor="end" font-size="50px" font-family="&quot;Gill Sans&quot;, &quot;Gill Sans MT&quot;, Calibri, sans-serif" xml:space="preserve">{Country: </text><text class="speech-bubble-content property-value" x="-35.36376953125" y="-55" alignment-baseline="central" font-size="50px" font-family="&quot;Gill Sans&quot;, &quot;Gill Sans MT&quot;, Calibri, sans-serif">United states}</text></g><g class="speech-bubble node-speech-bubble" transform="translate(1101.86036041276,66.53200973510735) "><path class="speech-bubble-outline" transform="scale(1,1) " d="M 0 0 L 20 -10 L 20 -75 A 10 10 0 0 1 30 -85 L 732.9296875 -85 A 10 10 0 0 1 742.9296875 -75 L 742.9296875 75 A 10 10 0 0 1 732.9296875 85 L 30 85 A 10 10 0 0 1 20 75 L 20 10 Z" fill="rgb(255, 255, 255)" stroke="rgb(0, 0, 0)" stroke-width="3px"/><text class="speech-bubble-content property-key" x="566.767578125" y="-50" alignment-baseline="central" text-anchor="end" font-size="50px" font-family="&quot;Gill Sans&quot;, &quot;Gill Sans MT&quot;, Calibri, sans-serif" xml:space="preserve">{LanguageWorkedWith: </text><text class="speech-bubble-content property-value" x="566.767578125" y="-50" alignment-baseline="central" font-size="50px" font-family="&quot;Gill Sans&quot;, &quot;Gill Sans MT&quot;, Calibri, sans-serif">C}</text><text class="speech-bubble-content property-key" x="566.767578125" y="0" alignment-baseline="central" text-anchor="end" font-size="50px" font-family="&quot;Gill Sans&quot;, &quot;Gill Sans MT&quot;, Calibri, sans-serif" xml:space="preserve">{WebFrameWorkedWith: </text><text class="speech-bubble-content property-value" x="566.767578125" y="0" alignment-baseline="central" font-size="50px" font-family="&quot;Gill Sans&quot;, &quot;Gill Sans MT&quot;, Calibri, sans-serif">jQuery}</text><text class="speech-bubble-content property-key" x="566.767578125" y="50" alignment-baseline="central" text-anchor="end" font-size="50px" font-family="&quot;Gill Sans&quot;, &quot;Gill Sans MT&quot;, Calibri, sans-serif" xml:space="preserve">{DatabaseWorkedWith: </text><text class="speech-bubble-content property-value" x="566.767578125" y="50" alignment-baseline="central" font-size="50px" font-family="&quot;Gill Sans&quot;, &quot;Gill Sans MT&quot;, Calibri, sans-serif">MySQL}</text></g><g class="speech-bubble node-speech-bubble" transform="translate(867.6052857132677,680.8953428574326) "><path class="speech-bubble-outline" transform="scale(1,1) " d="M 0 0 L 30 20 L 642.1337890625 20 A 10 10 0 0 1 652.1337890625 30 L 652.1337890625 80 A 10 10 0 0 1 642.1337890625 90 L 30 90 A 10 10 0 0 1 20 80 L 20 30 Z" fill="rgb(255, 255, 255)" stroke="rgb(0, 0, 0)" stroke-width="3px"/><text class="speech-bubble-content property-key" x="515.498046875" y="55" alignment-baseline="central" text-anchor="end" font-size="50px" font-family="&quot;Gill Sans&quot;, &quot;Gill Sans MT&quot;, Calibri, sans-serif" xml:space="preserve">{PlatformWorkedWith: </text><text class="speech-bubble-content property-value" x="515.498046875" y="55" alignment-baseline="central" font-size="50px" font-family="&quot;Gill Sans&quot;, &quot;Gill Sans MT&quot;, Calibri, sans-serif">Linux}</text></g><g class="speech-bubble node-speech-bubble" transform="translate(-102.28694839477542,993.3066372190134) "><path class="speech-bubble-outline" transform="scale(1,1) " d="M 0 0 L -10 20 L -213.41552734375 20 A 10 10 0 0 0 -223.41552734375 30 L -223.41552734375 80 A 10 10 0 0 0 -213.41552734375 90 L 213.41552734375 90 A 10 10 0 0 0 223.41552734375 80 L 223.41552734375 30 A 10 10 0 0 0 213.41552734375 20 L 10 20 Z" fill="rgb(255, 255, 255)" stroke="rgb(0, 0, 0)" stroke-width="3px"/><text class="speech-bubble-content property-key" x="64.51416015625" y="55" alignment-baseline="central" text-anchor="end" font-size="50px" font-family="&quot;Gill Sans&quot;, &quot;Gill Sans MT&quot;, Calibri, sans-serif" xml:space="preserve">{SocialMedia: </text><text class="speech-bubble-content property-value" x="64.51416015625" y="55" alignment-baseline="central" font-size="50px" font-family="&quot;Gill Sans&quot;, &quot;Gill Sans MT&quot;, Calibri, sans-serif">Reddit}</text></g><g class="speech-bubble node-speech-bubble" transform="translate(-851.2955856152041,661.2548269482107) "><path class="speech-bubble-outline" transform="scale(-1,1) " d="M 0 0 L 30 20 L 461.005859375 20 A 10 10 0 0 1 471.005859375 30 L 471.005859375 80 A 10 10 0 0 1 461.005859375 90 L 30 90 A 10 10 0 0 1 20 80 L 20 30 Z" fill="rgb(255, 255, 255)" stroke="rgb(0, 0, 0)" stroke-width="3px"/><text class="speech-bubble-content property-key" x="-183.662109375" y="55" alignment-baseline="central" text-anchor="end" font-size="50px" font-family="&quot;Gill Sans&quot;, &quot;Gill Sans MT&quot;, Calibri, sans-serif" xml:space="preserve">{DevEnviron: </text><text class="speech-bubble-content property-value" x="-183.662109375" y="55" alignment-baseline="central" font-size="50px" font-family="&quot;Gill Sans&quot;, &quot;Gill Sans MT&quot;, Calibri, sans-serif">Eclipse}</text></g></g><g class="layer overlay"><circle class="node overlay" r="132.3179199593767" stroke="none" fill="rgba(255, 255, 255, 0)" cx="0" cy="0"/><circle class="node ring" r="137.3179199593767" fill="none" stroke="rgba(255, 255, 255, 0)" stroke-width="10px" cx="0" cy="0"/><circle class="node overlay" r="238.27491912857997" stroke="none" fill="rgba(255, 255, 255, 0)" cx="867.5854412841801" cy="66.53200973510735"/><circle class="node ring" r="243.27491912857997" fill="none" stroke="rgba(255, 255, 255, 0)" stroke-width="10px" cx="867.5854412841801" cy="66.53200973510735"/><path class="relationship overlay" fill="rgba(255, 255, 255, 0)" stroke="rgba(255, 255, 255, 0)" stroke-width="10px" transform="translate(0,0) rotate(4.3852246550439915)" d="M 143.3179199593767 4 L 588.8578329544904 4 L 588.8578329544904 16 L 620.8578329544904 0 L 588.8578329544904 -16 L 588.8578329544904 -4 L 143.3179199593767 -4 Z"/><circle class="node overlay" r="112.7461942022548" stroke="none" fill="rgba(255, 255, 255, 0)" cx="790.7101143646241" cy="604.0001715087891"/><circle class="node ring" r="117.7461942022548" fill="none" stroke="rgba(255, 255, 255, 0)" stroke-width="10px" cx="790.7101143646241" cy="604.0001715087891"/><path class="relationship overlay" fill="rgba(255, 255, 255, 0)" stroke="rgba(255, 255, 255, 0)" stroke-width="10px" transform="translate(0,0) rotate(37.37514401598422)" d="M 143.3179199593767 4 L 839.2606862469024 4 L 839.2606862469024 16 L 871.2606862469024 0 L 839.2606862469024 -16 L 839.2606862469024 -4 L 143.3179199593767 -4 Z"/><circle class="node overlay" r="143.82751139503873" stroke="none" fill="rgba(255, 255, 255, 0)" cx="-102.28694839477542" cy="853.4791258239746"/><circle class="node ring" r="148.82751139503873" fill="none" stroke="rgba(255, 255, 255, 0)" stroke-width="10px" cx="-102.28694839477542" cy="853.4791258239746"/><path class="relationship overlay" fill="rgba(255, 255, 255, 0)" stroke="rgba(255, 255, 255, 0)" stroke-width="10px" transform="translate(0,0) rotate(96.83413380031351)" d="M 143.3179199593767 4 L 672.7591555729705 4 L 672.7591555729705 16 L 704.7591555729705 0 L 672.7591555729705 -16 L 672.7591555729705 -4 L 143.3179199593767 -4 Z"/><circle class="node overlay" r="289.49504521373075" stroke="none" fill="rgba(255, 255, 255, 0)" cx="-649.4201031494151" cy="459.37934448242174"/><circle class="node ring" r="294.49504521373075" fill="none" stroke="rgba(255, 255, 255, 0)" stroke-width="10px" cx="-649.4201031494151" cy="459.37934448242174"/><path class="relationship overlay" fill="rgba(255, 255, 255, 0)" stroke="rgba(255, 255, 255, 0)" stroke-width="10px" transform="translate(0,0) rotate(144.72561343765543)" d="M 143.3179199593767 4 L 462.97704889875075 4 L 462.97704889875075 16 L 494.97704889875075 0 L 462.97704889875075 -16 L 462.97704889875075 -4 L 143.3179199593767 -4 Z"/></g></svg>